<svg width="229" height="50" viewBox="0 0 229 50" fill="none" xmlns="http://www.w3.org/2000/svg">
<path d="M85.8867 23.1367V34.4062C85.444 34.9401 84.7604 35.5195 83.8359 36.1445C82.9115 36.7565 81.7201 37.2839 80.2617 37.7266C78.8034 38.1693 77.0391 38.3906 74.9688 38.3906C73.1328 38.3906 71.4596 38.0911 69.9492 37.4922C68.4388 36.8802 67.1367 35.9883 66.043 34.8164C64.9622 33.6445 64.1289 32.2122 63.543 30.5195C62.957 28.8138 62.6641 26.8672 62.6641 24.6797V22.9023C62.6641 20.7148 62.944 18.7682 63.5039 17.0625C64.0768 15.3568 64.8906 13.918 65.9453 12.7461C67 11.5742 68.2565 10.6823 69.7148 10.0703C71.1732 9.45833 72.7943 9.15234 74.5781 9.15234C77.0521 9.15234 79.0833 9.55599 80.6719 10.3633C82.2604 11.1576 83.4714 12.2643 84.3047 13.6836C85.151 15.0898 85.6719 16.7044 85.8672 18.5273H80.1836C80.0404 17.5638 79.7669 16.724 79.3633 16.0078C78.9596 15.2917 78.3802 14.7318 77.625 14.3281C76.8828 13.9245 75.9193 13.7227 74.7344 13.7227C73.7578 13.7227 72.8854 13.9245 72.1172 14.3281C71.362 14.7188 70.724 15.2982 70.2031 16.0664C69.6823 16.8346 69.2852 17.7852 69.0117 18.918C68.7383 20.0508 68.6016 21.3659 68.6016 22.8633V24.6797C68.6016 26.1641 68.7448 27.4792 69.0312 28.625C69.3177 29.7578 69.7409 30.7148 70.3008 31.4961C70.8737 32.2643 71.5768 32.8438 72.4102 33.2344C73.2435 33.625 74.2135 33.8203 75.3203 33.8203C76.2448 33.8203 77.013 33.7422 77.625 33.5859C78.25 33.4297 78.7513 33.2409 79.1289 33.0195C79.5195 32.7852 79.819 32.5638 80.0273 32.3555V27.3164H74.6758V23.1367H85.8867ZM95.8867 21.4766V38H90.2617V16.8672H95.5547L95.8867 21.4766ZM102.254 16.7305L102.156 21.9453C101.883 21.9062 101.551 21.8737 101.16 21.8477C100.783 21.8086 100.438 21.7891 100.125 21.7891C99.3307 21.7891 98.6406 21.8932 98.0547 22.1016C97.4818 22.2969 97 22.5898 96.6094 22.9805C96.2318 23.3711 95.9453 23.8464 95.75 24.4062C95.5677 24.9661 95.4635 25.6042 95.4375 26.3203L94.3047 25.9688C94.3047 24.6016 94.4414 23.3451 94.7148 22.1992C94.9883 21.0404 95.3854 20.0312 95.9062 19.1719C96.4401 18.3125 97.0911 17.6484 97.8594 17.1797C98.6276 16.7109 99.5065 16.4766 100.496 16.4766C100.809 16.4766 101.128 16.5026 101.453 16.5547C101.779 16.5938 102.046 16.6523 102.254 16.7305ZM115.652 33.2344V23.8203C115.652 23.1432 115.542 22.5638 115.32 22.082C115.099 21.5872 114.754 21.2031 114.285 20.9297C113.829 20.6562 113.237 20.5195 112.508 20.5195C111.883 20.5195 111.342 20.6302 110.887 20.8516C110.431 21.0599 110.079 21.3659 109.832 21.7695C109.585 22.1602 109.461 22.6224 109.461 23.1562H103.836C103.836 22.2578 104.044 21.4049 104.461 20.5977C104.878 19.7904 105.483 19.0807 106.277 18.4688C107.072 17.8438 108.016 17.3555 109.109 17.0039C110.216 16.6523 111.453 16.4766 112.82 16.4766C114.461 16.4766 115.919 16.75 117.195 17.2969C118.471 17.8438 119.474 18.6641 120.203 19.7578C120.945 20.8516 121.316 22.2188 121.316 23.8594V32.9023C121.316 34.0612 121.388 35.0117 121.531 35.7539C121.674 36.4831 121.883 37.1211 122.156 37.668V38H116.473C116.199 37.4271 115.991 36.7109 115.848 35.8516C115.717 34.9792 115.652 34.1068 115.652 33.2344ZM116.395 25.1289L116.434 28.3125H113.289C112.547 28.3125 111.902 28.3971 111.355 28.5664C110.809 28.7357 110.359 28.9766 110.008 29.2891C109.656 29.5885 109.396 29.9401 109.227 30.3438C109.07 30.7474 108.992 31.1901 108.992 31.6719C108.992 32.1536 109.103 32.5898 109.324 32.9805C109.546 33.3581 109.865 33.6576 110.281 33.8789C110.698 34.0872 111.186 34.1914 111.746 34.1914C112.592 34.1914 113.328 34.0221 113.953 33.6836C114.578 33.3451 115.06 32.9284 115.398 32.4336C115.75 31.9388 115.932 31.4701 115.945 31.0273L117.43 33.4102C117.221 33.944 116.935 34.4974 116.57 35.0703C116.219 35.6432 115.77 36.1836 115.223 36.6914C114.676 37.1862 114.018 37.5964 113.25 37.9219C112.482 38.2344 111.57 38.3906 110.516 38.3906C109.174 38.3906 107.957 38.1237 106.863 37.5898C105.783 37.043 104.923 36.2943 104.285 35.3438C103.66 34.3802 103.348 33.2865 103.348 32.0625C103.348 30.9557 103.556 29.9727 103.973 29.1133C104.389 28.2539 105.001 27.5312 105.809 26.9453C106.629 26.3464 107.651 25.8971 108.875 25.5977C110.099 25.2852 111.518 25.1289 113.133 25.1289H116.395ZM131.277 20.9297V46.125H125.652V16.8672H130.867L131.277 20.9297ZM144.656 27.1992V27.6094C144.656 29.1458 144.474 30.5716 144.109 31.8867C143.758 33.2018 143.237 34.3477 142.547 35.3242C141.857 36.2878 140.997 37.043 139.969 37.5898C138.953 38.1237 137.781 38.3906 136.453 38.3906C135.164 38.3906 134.044 38.1302 133.094 37.6094C132.143 37.0885 131.342 36.3594 130.691 35.4219C130.053 34.4714 129.539 33.3711 129.148 32.1211C128.758 30.8711 128.458 29.5299 128.25 28.0977V27.0234C128.458 25.487 128.758 24.0807 129.148 22.8047C129.539 21.5156 130.053 20.4023 130.691 19.4648C131.342 18.5143 132.137 17.7786 133.074 17.2578C134.025 16.737 135.138 16.4766 136.414 16.4766C137.755 16.4766 138.934 16.7305 139.949 17.2383C140.978 17.7461 141.837 18.4753 142.527 19.4258C143.23 20.3763 143.758 21.5091 144.109 22.8242C144.474 24.1393 144.656 25.5977 144.656 27.1992ZM139.012 27.6094V27.1992C139.012 26.3008 138.934 25.474 138.777 24.7188C138.634 23.9505 138.4 23.2799 138.074 22.707C137.762 22.1341 137.345 21.6914 136.824 21.3789C136.316 21.0534 135.698 20.8906 134.969 20.8906C134.201 20.8906 133.543 21.0143 132.996 21.2617C132.462 21.5091 132.026 21.8672 131.688 22.3359C131.349 22.8047 131.095 23.3646 130.926 24.0156C130.757 24.6667 130.652 25.4023 130.613 26.2227V28.9375C130.678 29.901 130.861 30.7669 131.16 31.5352C131.46 32.2904 131.922 32.8893 132.547 33.332C133.172 33.7747 133.992 33.9961 135.008 33.9961C135.75 33.9961 136.375 33.8333 136.883 33.5078C137.391 33.1693 137.801 32.707 138.113 32.1211C138.439 31.5352 138.667 30.8581 138.797 30.0898C138.94 29.3216 139.012 28.4948 139.012 27.6094ZM153.641 8V38H148.016V8H153.641ZM152.84 26.6914H151.297C151.31 25.2201 151.505 23.8659 151.883 22.6289C152.26 21.3789 152.801 20.2982 153.504 19.3867C154.207 18.4622 155.047 17.7461 156.023 17.2383C157.013 16.7305 158.107 16.4766 159.305 16.4766C160.346 16.4766 161.29 16.6263 162.137 16.9258C162.996 17.2122 163.732 17.681 164.344 18.332C164.969 18.9701 165.451 19.8099 165.789 20.8516C166.128 21.8932 166.297 23.1562 166.297 24.6406V38H160.633V24.6016C160.633 23.6641 160.496 22.9284 160.223 22.3945C159.962 21.8477 159.578 21.4635 159.07 21.2422C158.576 21.0078 157.964 20.8906 157.234 20.8906C156.427 20.8906 155.737 21.0404 155.164 21.3398C154.604 21.6393 154.155 22.056 153.816 22.5898C153.478 23.1107 153.23 23.7227 153.074 24.4258C152.918 25.1289 152.84 25.8841 152.84 26.6914ZM176.512 16.8672V38H170.867V16.8672H176.512ZM170.516 11.3594C170.516 10.5391 170.802 9.86198 171.375 9.32812C171.948 8.79427 172.716 8.52734 173.68 8.52734C174.63 8.52734 175.392 8.79427 175.965 9.32812C176.551 9.86198 176.844 10.5391 176.844 11.3594C176.844 12.1797 176.551 12.8568 175.965 13.3906C175.392 13.9245 174.63 14.1914 173.68 14.1914C172.716 14.1914 171.948 13.9245 171.375 13.3906C170.802 12.8568 170.516 12.1797 170.516 11.3594ZM196.961 33.7812L204.656 39.875L200.965 43.0781L193.387 36.9844L196.961 33.7812ZM204.852 23.1172V24.4648C204.852 26.6263 204.559 28.5664 203.973 30.2852C203.4 32.0039 202.573 33.4688 201.492 34.6797C200.411 35.8776 199.135 36.7956 197.664 37.4336C196.193 38.0716 194.559 38.3906 192.762 38.3906C190.978 38.3906 189.344 38.0716 187.859 37.4336C186.375 36.7956 185.092 35.8776 184.012 34.6797C182.931 33.4688 182.091 32.0039 181.492 30.2852C180.906 28.5664 180.613 26.6263 180.613 24.4648V23.1172C180.613 20.9427 180.906 19.0026 181.492 17.2969C182.091 15.5781 182.924 14.1133 183.992 12.9023C185.06 11.6914 186.336 10.7669 187.82 10.1289C189.305 9.49089 190.939 9.17188 192.723 9.17188C194.52 9.17188 196.154 9.49089 197.625 10.1289C199.109 10.7669 200.392 11.6914 201.473 12.9023C202.553 14.1133 203.387 15.5781 203.973 17.2969C204.559 19.0026 204.852 20.9427 204.852 23.1172ZM198.934 24.4648V23.0781C198.934 21.5677 198.79 20.2396 198.504 19.0938C198.23 17.9479 197.827 16.9844 197.293 16.2031C196.772 15.4219 196.128 14.8359 195.359 14.4453C194.591 14.0417 193.712 13.8398 192.723 13.8398C191.733 13.8398 190.854 14.0417 190.086 14.4453C189.318 14.8359 188.673 15.4219 188.152 16.2031C187.632 16.9844 187.234 17.9479 186.961 19.0938C186.688 20.2396 186.551 21.5677 186.551 23.0781V24.4648C186.551 25.9622 186.688 27.2904 186.961 28.4492C187.234 29.5951 187.632 30.5651 188.152 31.3594C188.686 32.1406 189.337 32.7331 190.105 33.1367C190.887 33.5404 191.772 33.7422 192.762 33.7422C193.751 33.7422 194.624 33.5404 195.379 33.1367C196.147 32.7331 196.792 32.1406 197.312 31.3594C197.846 30.5651 198.25 29.5951 198.523 28.4492C198.797 27.2904 198.934 25.9622 198.934 24.4648ZM227.371 33.4297V38H213.055V33.4297H227.371ZM214.949 9.5625V38H209.09V9.5625H214.949Z" fill="#281E5B"/>
<path d="M5.38649 36.795L7.18344 37.8325L27.2022 3.16005L25.4052 2.12255L5.38649 36.795Z" fill="#281E5B"/>
<path d="M45.0125 34.025H4.97501V36.1H45.0125V34.025Z" fill="#281E5B"/>
<path d="M5.76724 35.1907L25.7935 46.7532L26.831 44.9563L6.80474 33.3938L5.76724 35.1907Z" fill="#281E5B"/>
<path d="M23.164 5.05582L43.1903 16.6183L44.2278 14.8214L24.2015 3.25887L23.164 5.05582Z" fill="#281E5B"/>
<path d="M5.7728 14.8135L6.8103 16.6104L26.8366 5.04791L25.7991 3.25096L5.7728 14.8135Z" fill="#281E5B"/>
<path d="M22.8023 3.16041L42.821 37.8329L44.618 36.7954L24.5992 2.12292L22.8023 3.16041Z" fill="#281E5B"/>
<path d="M8.6375 13.4375H6.5625V36.5625H8.6375V13.4375Z" fill="#281E5B"/>
<path d="M43.4375 13.4375H41.3625V36.5625H43.4375V13.4375Z" fill="#281E5B"/>
<path d="M24.534 44.3053L25.4402 45.8749L42.8577 35.8187L41.9514 34.249L24.534 44.3053Z" fill="#281E5B"/>
<path d="M46.1875 37.2375C44.9875 39.325 42.3125 40.0375 40.225 38.8375C38.1375 37.6375 37.425 34.9625 38.625 32.875C39.825 30.7875 42.5 30.075 44.5875 31.275C46.6875 32.4875 47.4 35.15 46.1875 37.2375Z" fill="#281E5B"/>
<path d="M11.3625 17.125C10.1625 19.2125 7.48751 19.925 5.40001 18.725C3.31251 17.525 2.60001 14.85 3.80001 12.7625C5.00001 10.675 7.67501 9.9625 9.76251 11.1625C11.85 12.375 12.5625 15.0375 11.3625 17.125Z" fill="#281E5B"/>
<path d="M3.81252 37.2375C2.61252 35.15 3.32502 32.4875 5.41252 31.275C7.50002 30.075 10.1625 30.7875 11.375 32.875C12.575 34.9625 11.8625 37.625 9.77502 38.8375C7.67502 40.0375 5.01252 39.325 3.81252 37.2375Z" fill="#281E5B"/>
<path d="M38.6375 17.125C37.4375 15.0375 38.15 12.375 40.2375 11.1625C42.325 9.9625 44.9875 10.675 46.2 12.7625C47.4 14.85 46.6875 17.5125 44.6 18.725C42.5125 19.925 39.8375 19.2125 38.6375 17.125Z" fill="#281E5B"/>
<path d="M25 49.475C22.5875 49.475 20.6375 47.525 20.6375 45.1125C20.6375 42.7 22.5875 40.75 25 40.75C27.4125 40.75 29.3625 42.7 29.3625 45.1125C29.3625 47.5125 27.4125 49.475 25 49.475Z" fill="#281E5B"/>
<path d="M25 9.24999C22.5875 9.24999 20.6375 7.29999 20.6375 4.88749C20.6375 2.47499 22.5875 0.524994 25 0.524994C27.4125 0.524994 29.3625 2.47499 29.3625 4.88749C29.3625 7.29999 27.4125 9.24999 25 9.24999Z" fill="#281E5B"/>
</svg>
